<svg width="20" height="20" viewBox="0 0 20 20" fill="none" xmlns="http://www.w3.org/2000/svg">
<g clip-path="url(#clip0_284_1034)">
<path d="M2.00001 7.63722C2 7.08493 2.44772 6.63721 3.00001 6.63721L17 6.63725C17.5523 6.63726 18 7.08497 18 7.63725V8.9902C18 9.54249 17.5523 9.9902 17 9.9902H3.00002C2.44774 9.9902 2.00003 9.54249 2.00002 8.99021L2.00001 7.63722Z" stroke="#091221" stroke-width="1.2" stroke-linecap="round" stroke-linejoin="round"/>
<path d="M10 6.63721V17.4703" stroke="#091221" stroke-width="1.2" stroke-linecap="round" stroke-linejoin="round"/>
<path d="M16.1176 9.97034V15.4702C16.1176 16.5747 15.2222 17.4702 14.1176 17.4702H5.88232C4.77776 17.4702 3.88232 16.5747 3.88232 15.4702V9.97034" stroke="#091221" stroke-width="1.2" stroke-linecap="round" stroke-linejoin="round"/>
<path d="M6.23554 6.63715C5.68084 6.63715 5.14886 6.41766 4.75663 6.02697C4.3644 5.63627 4.14404 5.10638 4.14404 4.55386C4.14404 4.00134 4.3644 3.47145 4.75663 3.08076C5.14886 2.69007 5.68084 2.47058 6.23554 2.47058C7.0426 2.45657 7.83347 2.84662 8.50502 3.58985C9.17656 4.33309 9.69762 5.39501 10.0002 6.63715C10.3029 5.39501 10.8239 4.33309 11.4955 3.58985C12.167 2.84662 12.9579 2.45657 13.7649 2.47058C14.3196 2.47058 14.8516 2.69007 15.2439 3.08076C15.6361 3.47145 15.8564 4.00134 15.8564 4.55386C15.8564 5.10638 15.6361 5.63627 15.2439 6.02697C14.8516 6.41766 14.3196 6.63715 13.7649 6.63715" stroke="#091221" stroke-width="1.2" stroke-linecap="round" stroke-linejoin="round"/>
</g>
<defs>
<clipPath id="clip0_284_1034">
<rect width="20" height="20" fill="white"/>
</clipPath>
</defs>
</svg>
