<svg width="20" height="20" viewBox="0 0 20 20" fill="none" xmlns="http://www.w3.org/2000/svg">
<path d="M2.83594 7.40678C3.16615 3.81483 6.2466 1 9.99792 1C13.7492 1 16.8297 3.81483 17.1599 7.40678" stroke="#091221" stroke-width="1.2" stroke-linecap="round" stroke-linejoin="round"/>
<path fill-rule="evenodd" clip-rule="evenodd" d="M4.37808 14.2543V7.47461H3.41683C2.33365 7.47461 1.45557 8.38522 1.45557 9.50851V12.2204C1.45557 13.3437 2.33365 14.2543 3.41683 14.2543H4.37808ZM15.623 14.2543V7.47461H16.5843C17.6675 7.47461 18.5455 8.38522 18.5455 9.50851V12.2204C18.5455 13.3437 17.6675 14.2543 16.5843 14.2543H15.623Z" stroke="#091221" stroke-width="1.2" stroke-linecap="round" stroke-linejoin="round"/>
<path d="M11.9545 13.547C11.5396 13.9836 10.9627 14.2543 10.3248 14.2543H9.67108C9.0353 14.2543 8.46008 13.9854 8.04541 13.5512" stroke="#091221" stroke-width="1.2" stroke-linecap="round" stroke-linejoin="round"/>
<path d="M17.1894 14.2543V15.6102C17.1894 17.1079 16.0186 18.3221 14.5744 18.3221H11.3032" stroke="#091221" stroke-width="1.2" stroke-linecap="round" stroke-linejoin="round"/>
<path d="M12.6305 17.644H11.2882C10.9367 17.644 10.6519 17.9289 10.6519 18.2804V18.3637C10.6519 18.7151 10.9367 19 11.2882 19H12.6305C12.982 19 13.2669 18.7151 13.2669 18.3637V18.2804C13.2669 17.9289 12.982 17.644 12.6305 17.644Z" stroke="#091221" stroke-width="1.2" stroke-linecap="round" stroke-linejoin="round"/>
</svg>
